<svg aria-hidden="true" style="position:absolute;width:0;height:0;overflow:hidden" xmlns="http://www.w3.org/2000/svg">
  <defs>
    <symbol id="icon-heart" viewBox="0 0 32 32">
      <path fill="none" stroke="#f6b83d" style="stroke:var(--color1, #f6b83d)" stroke-linejoin="round" stroke-linecap="round" stroke-width="2.667" d="M27.788 6.147a7.345 7.345 0 0 0-5.187-2.15 7.33 7.33 0 0 0-5.187 2.15L16.001 7.56l-1.413-1.413a7.333 7.333 0 0 0-10.374 0 7.333 7.333 0 0 0 0 10.374l11.787 11.787 11.787-11.787a7.345 7.345 0 0 0 2.149-5.187 7.33 7.33 0 0 0-2.149-5.187z"/>
    </symbol>
    <symbol id="icon-calendar" viewBox="0 0 32 32">
      <path stroke-linejoin="round" stroke-linecap="round" stroke-width="2.88" d="M25.333 5.333H6.666A2.667 2.667 0 0 0 3.999 8v18.667a2.667 2.667 0 0 0 2.667 2.667h18.667A2.667 2.667 0 0 0 28 26.667V8a2.667 2.667 0 0 0-2.667-2.667zM21.333 2.667V8M10.667 2.667V8M4 13.333h24"/>
    </symbol>
    <symbol id="icon-chevron-down" viewBox="0 0 32 32">
      <path stroke-linejoin="round" stroke-linecap="round" stroke-width="3.556" d="m8 12 8 8 8-8"/>
    </symbol>
    <symbol id="icon-cross-small" viewBox="0 0 32 32">
      <path fill="none" stroke="#ef2447" style="stroke:var(--color2, #ef2447)" stroke-linejoin="round" stroke-linecap="round" stroke-width="2.909" d="M25.333 6.667 6.666 25.334m0-18.667 18.667 18.667"/>
    </symbol>
    <symbol id="icon-edit-2pen" viewBox="0 0 32 32">
      <path fill="none" stroke="#f6b83d" style="stroke:var(--color1, #f6b83d)" stroke-linejoin="round" stroke-linecap="round" stroke-width="2.667" d="M22.667 4a3.766 3.766 0 0 1 4.109-.817 3.766 3.766 0 0 1 2.327 3.484 3.779 3.779 0 0 1-1.104 2.666l-18 18-7.333 2 2-7.333 18-18z"/>
    </symbol>
    <symbol id="icon-eye-off" viewBox="0 0 32 32">
      <path fill="none" stroke="#f6b83d" style="stroke:var(--color1, #f6b83d)" stroke-linejoin="round" stroke-linecap="round" stroke-width="2.133" d="M21.809 17.541a9.844 9.844 0 0 1-5.808 2.014c-6.844 0-10.756-7.822-10.756-7.822a18.025 18.025 0 0 1 4.948-5.808m3.755-1.779a8.925 8.925 0 0 1 2.053-.235c6.844 0 10.756 7.822 10.756 7.822a18.037 18.037 0 0 1-2.112 3.119m-6.571-1.046a2.939 2.939 0 0 1-2.094.934 2.939 2.939 0 0 1-2.772-1.835 2.924 2.924 0 0 1 .041-2.292c.161-.36.391-.684.68-.952M5.246.978l21.511 21.511"/>
    </symbol>
    <symbol id="icon-eye" viewBox="0 0 32 32">
      <path fill="none" stroke="#f6b83d" style="stroke:var(--color1, #f6b83d)" stroke-linejoin="round" stroke-linecap="round" stroke-width="2.909" d="M1.332 16S6.665 5.333 15.999 5.333 30.666 16 30.666 16s-5.333 10.667-14.667 10.667C6.666 26.667 1.332 16 1.332 16z"/>
      <path fill="none" stroke="#f6b83d" style="stroke:var(--color1, #f6b83d)" stroke-linejoin="round" stroke-linecap="round" stroke-width="2.909" d="M16 20a4 4 0 1 0 0-8 4 4 0 0 0 0 8z"/>
    </symbol>
    <symbol id="icon-female" viewBox="0 0 32 32">
      <path fill="none" stroke="#f43f5e" style="stroke:var(--color3, #f43f5e)" stroke-linejoin="round" stroke-linecap="round" stroke-width="2.4" d="M16 17.6a8 8 0 1 0 0-16 8 8 0 0 0 0 16zm0 0v12.8m-4.8-4.8h9.6"/>
    </symbol>
    <symbol id="icon-green" viewBox="0 0 32 32">
      <path fill="none" stroke="#08aa83" style="stroke:var(--color4, #08aa83)" stroke-linejoin="round" stroke-linecap="round" stroke-width="2.667" d="M29.038 6.963 11.112 24.889l-8.148-8.148"/>
    </symbol>
    <symbol id="icon-Group" viewBox="0 0 32 32">
      <path fill="#f6b83d" style="fill:var(--color1, #f6b83d)" d="M10.259 8.436a6.213 6.213 0 0 0-7.275 2.111 6.218 6.218 0 0 0 7.516 9.375 6.217 6.217 0 0 0 3.643-6.641.877.877 0 0 1 .162-.66.88.88 0 0 1 .582-.353.877.877 0 0 1 .66.162.88.88 0 0 1 .353.582A7.998 7.998 0 0 1 1.757 19.23 7.998 7.998 0 0 1 5.768 6.549a7.99 7.99 0 0 1 5.137.231.884.884 0 0 1 .5.47.888.888 0 0 1-1.146 1.186z"/>
      <path fill="#f6b83d" style="fill:var(--color1, #f6b83d)" d="M7.108 29.334v-7.108a.889.889 0 0 1 1.776 0v7.108a.889.889 0 0 1-1.776 0z"/>
      <path fill="#f6b83d" style="fill:var(--color1, #f6b83d)" d="M4.443 24.891a.889.889 0 0 1 .888-.888h5.331a.889.889 0 0 1 0 1.776H5.331a.884.884 0 0 1-.888-.888zM20.349 8.243a6.221 6.221 0 0 0-7.482 3.72 6.212 6.212 0 0 0-.384 2.999.884.884 0 0 1-.183.657.9.9 0 0 1-.595.335.885.885 0 0 1-.988-.781 7.993 7.993 0 0 1 4.978-8.37 8 8 0 0 1 10.959 7.536 7.999 7.999 0 0 1-11.161 7.234.893.893 0 0 1-.466-1.168.886.886 0 0 1 1.168-.464 6.206 6.206 0 0 0 4.949-.011 6.22 6.22 0 0 0-.796-11.686z"/>
      <path fill="#f6b83d" style="fill:var(--color1, #f6b83d)" d="M23.807 9.97a.888.888 0 0 1 0-1.256l6.664-6.664a.9.9 0 0 1 .976-.205.883.883 0 0 1 .552.83.897.897 0 0 1-.271.631L25.064 9.97a.888.888 0 0 1-1.256 0z"/>
      <path fill="#f6b83d" style="fill:var(--color1, #f6b83d)" d="M31.031 8.009a.896.896 0 0 1-.625-.268.89.89 0 0 1-.252-.632l.044-3.531-3.531.044a.891.891 0 0 1-.9-.877.891.891 0 0 1 .877-.9l5.354-.068-.068 5.354a.896.896 0 0 1-.268.625.89.89 0 0 1-.632.252z"/>
    </symbol>
    <symbol id="icon-male" viewBox="0 0 32 32">
      <path fill="none" stroke="#54adff" style="stroke:var(--color5, #54adff)" stroke-linejoin="round" stroke-linecap="round" stroke-width="2.4" d="M16 14.4a8 8 0 1 0 0 16 8 8 0 0 0 0-16zm0 0V1.6m0 0L22.4 8M16 1.6 9.6 8"/>
    </symbol>
    <symbol id="icon-pipl" viewBox="0 0 32 32">
      <path fill="#fff4df" style="fill:var(--color6, #fff4df)" d="M32 16c0 8.837-7.163 16-16 16S0 24.837 0 16 7.163 0 16 0s16 7.163 16 16z"/>
      <path fill="#f6b83d" style="fill:var(--color1, #f6b83d);stroke:var(--color1, #f6b83d)" stroke="#f6b83d" stroke-linejoin="round" stroke-linecap="round" stroke-width="1.28" d="M16 17.92c-2.029 0-3.833.98-4.982 2.5-.247.327-.371.491-.367.712.003.171.11.386.245.492.174.137.415.137.897.137h8.413c.482 0 .723 0 .897-.137a.714.714 0 0 0 .245-.492c.004-.221-.12-.385-.367-.712-1.149-1.52-2.953-2.5-4.982-2.5zM16 16a2.88 2.88 0 1 0 .001-5.759A2.88 2.88 0 0 0 16 16z"/>
    </symbol>
    <symbol id="icon-search" viewBox="0 0 32 32">
      <path stroke-linejoin="round" stroke-linecap="round" stroke-width="3.556" d="M14.667 25.333c5.891 0 10.667-4.776 10.667-10.667S20.558 3.999 14.667 3.999 4 8.775 4 14.666s4.776 10.667 10.667 10.667zM28.001 28l-5.8-5.8"/>
    </symbol>
    <symbol id="icon-star" viewBox="0 0 32 32">
      <path fill="#ffc531" style="fill:var(--color7, #ffc531);stroke:var(--color7, #ffc531)" stroke="#ffc531" stroke-width="2.4" d="M12.4 9.394 16 2.572l3.6 6.822a2.2 2.2 0 0 0 1.571 1.141l7.601 1.315-5.376 5.532a2.2 2.2 0 0 0-.6 1.846l1.098 7.635-6.922-3.404a2.199 2.199 0 0 0-1.941 0l-6.922 3.404 1.098-7.635a2.2 2.2 0 0 0-.6-1.846L3.231 11.85l7.601-1.315a2.202 2.202 0 0 0 1.571-1.141zm16.635 2.185zM7.767 27.031z"/>
    </symbol>
    <symbol id="icon-trash-2" viewBox="0 0 32 32">
      <path fill="none" stroke="#f6b83d" style="stroke:var(--color1, #f6b83d)" stroke-linejoin="round" stroke-linecap="round" stroke-width="2.667" d="M4 8h24M25.333 8v18.667a2.668 2.668 0 0 1-2.667 2.667H9.333a2.668 2.668 0 0 1-2.667-2.667V8m4.001 0V5.333a2.668 2.668 0 0 1 2.667-2.667h5.333a2.668 2.668 0 0 1 2.667 2.667V8M13.333 14.667v8M18.667 14.667v8"/>
    </symbol>
  </defs>
</svg>
