<svg aria-hidden="true" style="position:absolute;width:0;height:0;overflow:hidden" xmlns="http://www.w3.org/2000/svg">
  <defs>
    <symbol id="icon-heart" viewBox="0 0 32 32">
      <path fill="none" stroke="#f6b83d" style="stroke:var(--color1, #f6b83d)" stroke-linejoin="round" stroke-linecap="round" stroke-width="2.667" d="M27.788 6.147a7.345 7.345 0 0 0-5.187-2.15 7.33 7.33 0 0 0-5.187 2.15L16.001 7.56l-1.413-1.413a7.333 7.333 0 0 0-10.374 0 7.333 7.333 0 0 0 0 10.374l11.787 11.787 11.787-11.787a7.345 7.345 0 0 0 2.149-5.187 7.33 7.33 0 0 0-2.149-5.187z"/>
    </symbol>
   
    <symbol id="icon-cross-small" viewBox="0 0 32 32">
      <path fill="none" stroke="#ef2447" style="stroke:var(--color2, #ef2447)" stroke-linejoin="round" stroke-linecap="round" stroke-width="2.909" d="M25.333 6.667 6.666 25.334m0-18.667 18.667 18.667"/>
    </symbol>
    
    <symbol id="icon-edit-2pen" viewBox="0 0 32 32">
      <path fill="none" stroke="#f6b83d" style="stroke:var(--color1, #f6b83d)" stroke-linejoin="round" stroke-linecap="round" stroke-width="2.667" d="M22.667 4a3.766 3.766 0 0 1 4.109-.817 3.766 3.766 0 0 1 2.327 3.484 3.779 3.779 0 0 1-1.104 2.666l-18 18-7.333 2 2-7.333 18-18z"/>
    </symbol>
    <symbol id="icon-eye-off" viewBox="0 0 32 32">
      <path fill="none" stroke="#f6b83d" style="stroke:var(--color1, #f6b83d)" stroke-linejoin="round" stroke-linecap="round" stroke-width="2.133" d="M21.809 17.541a9.844 9.844 0 0 1-5.808 2.014c-6.844 0-10.756-7.822-10.756-7.822a18.025 18.025 0 0 1 4.948-5.808m3.755-1.779a8.925 8.925 0 0 1 2.053-.235c6.844 0 10.756 7.822 10.756 7.822a18.037 18.037 0 0 1-2.112 3.119m-6.571-1.046a2.939 2.939 0 0 1-2.094.934 2.939 2.939 0 0 1-2.772-1.835 2.924 2.924 0 0 1 .041-2.292c.161-.36.391-.684.68-.952M5.246.978l21.511 21.511"/>
    </symbol>
    <symbol id="icon-eye" viewBox="0 0 32 32">
      <path fill="none" stroke="#f6b83d" style="stroke:var(--color1, #f6b83d)" stroke-linejoin="round" stroke-linecap="round" stroke-width="2.909" d="M1.332 16S6.665 5.333 15.999 5.333 30.666 16 30.666 16s-5.333 10.667-14.667 10.667C6.666 26.667 1.332 16 1.332 16z"/>
      <path fill="none" stroke="#f6b83d" style="stroke:var(--color1, #f6b83d)" stroke-linejoin="round" stroke-linecap="round" stroke-width="2.909" d="M16 20a4 4 0 1 0 0-8 4 4 0 0 0 0 8z"/>
    </symbol>
    <symbol id="icon-female" viewBox="0 0 32 32">
      <path fill="none" stroke="#f43f5e" style="stroke:var(--color3, #f43f5e)" stroke-linejoin="round" stroke-linecap="round" stroke-width="2.4" d="M16 17.6a8 8 0 1 0 0-16 8 8 0 0 0 0 16zm0 0v12.8m-4.8-4.8h9.6"/>
    </symbol>
    <symbol id="icon-green" viewBox="0 0 32 32">
      <path fill="none" stroke="#08aa83" style="stroke:var(--color4, #08aa83)" stroke-linejoin="round" stroke-linecap="round" stroke-width="2.667" d="M29.038 6.963 11.112 24.889l-8.148-8.148"/>
    </symbol>
    <symbol id="icon-Group" viewBox="0 0 32 32">
      <path fill="#f6b83d" style="fill:var(--color1, #f6b83d)" d="M10.259 8.436a6.213 6.213 0 0 0-7.275 2.111 6.218 6.218 0 0 0 7.516 9.375 6.217 6.217 0 0 0 3.643-6.641.877.877 0 0 1 .162-.66.88.88 0 0 1 .582-.353.877.877 0 0 1 .66.162.88.88 0 0 1 .353.582A7.998 7.998 0 0 1 1.757 19.23 7.998 7.998 0 0 1 5.768 6.549a7.99 7.99 0 0 1 5.137.231.884.884 0 0 1 .5.47.888.888 0 0 1-1.146 1.186z"/>
      <path fill="#f6b83d" style="fill:var(--color1, #f6b83d)" d="M7.108 29.334v-7.108a.889.889 0 0 1 1.776 0v7.108a.889.889 0 0 1-1.776 0z"/>
      <path fill="#f6b83d" style="fill:var(--color1, #f6b83d)" d="M4.443 24.891a.889.889 0 0 1 .888-.888h5.331a.889.889 0 0 1 0 1.776H5.331a.884.884 0 0 1-.888-.888zM20.349 8.243a6.221 6.221 0 0 0-7.482 3.72 6.212 6.212 0 0 0-.384 2.999.884.884 0 0 1-.183.657.9.9 0 0 1-.595.335.885.885 0 0 1-.988-.781 7.993 7.993 0 0 1 4.978-8.37 8 8 0 0 1 10.959 7.536 7.999 7.999 0 0 1-11.161 7.234.893.893 0 0 1-.466-1.168.886.886 0 0 1 1.168-.464 6.206 6.206 0 0 0 4.949-.011 6.22 6.22 0 0 0-.796-11.686z"/>
      <path fill="#f6b83d" style="fill:var(--color1, #f6b83d)" d="M23.807 9.97a.888.888 0 0 1 0-1.256l6.664-6.664a.9.9 0 0 1 .976-.205.883.883 0 0 1 .552.83.897.897 0 0 1-.271.631L25.064 9.97a.888.888 0 0 1-1.256 0z"/>
      <path fill="#f6b83d" style="fill:var(--color1, #f6b83d)" d="M31.031 8.009a.896.896 0 0 1-.625-.268.89.89 0 0 1-.252-.632l.044-3.531-3.531.044a.891.891 0 0 1-.9-.877.891.891 0 0 1 .877-.9l5.354-.068-.068 5.354a.896.896 0 0 1-.268.625.89.89 0 0 1-.632.252z"/>
    </symbol>
    <symbol id="icon-male" viewBox="0 0 32 32">
      <path fill="none" stroke="#54adff" style="stroke:var(--color5, #54adff)" stroke-linejoin="round" stroke-linecap="round" stroke-width="2.4" d="M16 14.4a8 8 0 1 0 0 16 8 8 0 0 0 0-16zm0 0V1.6m0 0L22.4 8M16 1.6 9.6 8"/>
    </symbol>
    <symbol id="icon-pipl" viewBox="0 0 32 32">
      <path fill="#fff4df" style="fill:var(--color6, #fff4df)" d="M32 16c0 8.837-7.163 16-16 16S0 24.837 0 16 7.163 0 16 0s16 7.163 16 16z"/>
      <path fill="#f6b83d" style="fill:var(--color1, #f6b83d);stroke:var(--color1, #f6b83d)" stroke="#f6b83d" stroke-linejoin="round" stroke-linecap="round" stroke-width="1.28" d="M16 17.92c-2.029 0-3.833.98-4.982 2.5-.247.327-.371.491-.367.712.003.171.11.386.245.492.174.137.415.137.897.137h8.413c.482 0 .723 0 .897-.137a.714.714 0 0 0 .245-.492c.004-.221-.12-.385-.367-.712-1.149-1.52-2.953-2.5-4.982-2.5zM16 16a2.88 2.88 0 1 0 .001-5.759A2.88 2.88 0 0 0 16 16z"/>
    </symbol>
    <symbol id="icon-search" viewBox="0 0 32 32">
      <path stroke-linejoin="round" stroke-linecap="round" stroke-width="3.556" d="M14.667 25.333c5.891 0 10.667-4.776 10.667-10.667S20.558 3.999 14.667 3.999 4 8.775 4 14.666s4.776 10.667 10.667 10.667zM28.001 28l-5.8-5.8"/>
    </symbol>
    <symbol id="icon-star" viewBox="0 0 32 32">
      <path fill="#ffc531" style="fill:var(--color7, #ffc531);stroke:var(--color7, #ffc531)" stroke="#ffc531" stroke-width="2.4" d="M12.4 9.394 16 2.572l3.6 6.822a2.2 2.2 0 0 0 1.571 1.141l7.601 1.315-5.376 5.532a2.2 2.2 0 0 0-.6 1.846l1.098 7.635-6.922-3.404a2.199 2.199 0 0 0-1.941 0l-6.922 3.404 1.098-7.635a2.2 2.2 0 0 0-.6-1.846L3.231 11.85l7.601-1.315a2.202 2.202 0 0 0 1.571-1.141zm16.635 2.185zM7.767 27.031z"/>
    </symbol>
    <symbol id="icon-trash-2" viewBox="0 0 32 32">
      <path fill="none" stroke="#f6b83d" style="stroke:var(--color1, #f6b83d)" stroke-linejoin="round" stroke-linecap="round" stroke-width="2.667" d="M4 8h24M25.333 8v18.667a2.668 2.668 0 0 1-2.667 2.667H9.333a2.668 2.668 0 0 1-2.667-2.667V8m4.001 0V5.333a2.668 2.668 0 0 1 2.667-2.667h5.333a2.668 2.668 0 0 1 2.667 2.667V8M13.333 14.667v8M18.667 14.667v8"/>
    </symbol>
    <symbol id="icon-hearFill" viewBox="0 0 36 32">
<path   d="M17.988 4.396c-3.519-4.155-9.387-5.272-13.796-1.468s-5.030 10.165-1.567 14.665c2.218 2.882 7.897 8.226 11.694 11.696 1.262 1.153 1.893 1.73 2.648 1.961 0.65 0.199 1.392 0.199 2.041 0 0.756-0.231 1.387-0.808 2.648-1.961 3.797-3.47 9.476-8.814 11.694-11.696 3.462-4.5 2.917-10.9-1.567-14.665s-10.277-2.687-13.796 1.468z"></path>
</symbol>
<symbol id="icon-menu-01" viewBox="0 0 32 32">
<path fill="none" stroke="#fff" style="stroke: var(--color1, #fff)" stroke-linejoin="round" stroke-linecap="round" stroke-miterlimit="4" stroke-width="3" d="M4 16h24"></path>
<path fill="none" stroke="#fff" style="stroke: var(--color1, #fff)" stroke-linejoin="round" stroke-linecap="round" stroke-miterlimit="4" stroke-width="3" d="M4 8h24"></path>
<path fill="none" stroke="#fff" style="stroke: var(--color1, #fff)" stroke-linejoin="round" stroke-linecap="round" stroke-miterlimit="4" stroke-width="3" d="M4 24h24"></path>
</symbol>

<symbol id="icon-close" viewBox="0 0 32 32">
<path d="M24 8L8 24" stroke="#262626" stroke-width="3" stroke-linecap="round" stroke-linejoin="round" />
  <path d="M8 8L24 24" stroke="#262626" stroke-width="3" stroke-linecap="round" stroke-linejoin="round" />
</symbol>

<symbol id="icon-close2" viewBox="0 0 32 32">
  <path d="M24 8L8 24" stroke="white" stroke-width="3" stroke-linecap="round" stroke-linejoin="round" />
  <path d="M8 8L24 24" stroke="white" stroke-width="3" stroke-linecap="round" stroke-linejoin="round" />
</symbol>

<symbol id="icon-menu-03" viewBox="0 0 32 32">
<path d="M4 16H28" stroke="#262626" stroke-width="3" stroke-linecap="round" stroke-linejoin="round"/>
<path d="M4 8H28" stroke="#262626" stroke-width="3" stroke-linecap="round" stroke-linejoin="round"/>
<path d="M4 24H28" stroke="#262626" stroke-width="3" stroke-linecap="round" stroke-linejoin="round"/>
</symbol>

<symbol id="icon-loofah" viewBox="0 0 18 18" fill="none">
  <path d="M8.25 14.25C11.5637 14.25 14.25 11.5637 14.25 8.25C14.25 4.93629 11.5637 2.25 8.25 2.25C4.93629 2.25 2.25 4.93629 2.25 8.25C2.25 11.5637 4.93629 14.25 8.25 14.25Z" stroke="#262626" stroke-width="1.5" stroke-linecap="round" stroke-linejoin="round" />
  <path d="M15.7508 15.75L12.4883 12.4875" stroke="#262626" stroke-width="1.5" stroke-linecap="round" stroke-linejoin="round" />
</symbol>

<symbol id="icon-cross" viewBox="0 0 18 18" fill="none" >
  <path d="M14.25 3.75L3.75 14.25M3.75003 3.75L14.25 14.25" stroke="#262626" stroke-width="1.5" stroke-linecap="round" stroke-linejoin="round" />
</symbol>

<symbol id="icon-user-white" width="18" height="18" viewBox="0 0 18 18" fill="none">
  <path d="M9.00038 11.25C6.62282 11.25 4.50847 12.398 3.16237 14.1795C2.87265 14.5629 2.7278 14.7546 2.73253 15.0137C2.7362 15.2139 2.8619 15.4664 3.0194 15.59C3.22327 15.75 3.50578 15.75 4.0708 15.75H13.93C14.495 15.75 14.7775 15.75 14.9814 15.59C15.1389 15.4664 15.2646 15.2139 15.2682 15.0137C15.273 14.7546 15.1281 14.5629 14.8384 14.1795C13.4923 12.398 11.3779 11.25 9.00038 11.25Z" fill="white" stroke="white" stroke-width="2" stroke-linecap="round" stroke-linejoin="round" />
  <path d="M9 9C10.864 9 12.375 7.48896 12.375 5.625C12.375 3.76104 10.864 2.25 9 2.25C7.13604 2.25 5.625 3.76104 5.625 5.625C5.625 7.48896 7.13604 9 9 9Z" fill="white" stroke="white" stroke-width="2" stroke-linecap="round" stroke-linejoin="round" />
</symbol>

<symbol id="icon-plus" width="18" height="18" viewBox="0 0 18 18" fill="none">
  <path d="M9 3.75V14.25" stroke="white" stroke-width="1.5" stroke-linecap="round" stroke-linejoin="round" />
  <path d="M3.75 9H14.25" stroke="white" stroke-width="1.5" stroke-linecap="round" stroke-linejoin="round" />
</symbol>

<symbol id="icon-heart-white" width="18" height="18" viewBox="0 0 18 18" fill="none">
  <path d="M15.6286 3.45753C15.2456 3.07428 14.7907 2.77026 14.2901 2.56284C13.7895 2.35542 13.253 2.24866 12.7111 2.24866C12.1693 2.24866 11.6327 2.35542 11.1321 2.56284C10.6315 2.77026 10.1767 3.07428 9.79362 3.45753L8.99862 4.25253L8.20362 3.45753C7.42985 2.68376 6.3804 2.24906 5.28612 2.24906C4.19185 2.24906 3.14239 2.68376 2.36862 3.45753C1.59486 4.2313 1.16016 5.28075 1.16016 6.37503C1.16016 7.4693 1.59486 8.51876 2.36862 9.29253L3.16362 10.0875L8.99862 15.9225L14.8336 10.0875L15.6286 9.29253C16.0119 8.90946 16.3159 8.45464 16.5233 7.95404C16.7307 7.45345 16.8375 6.91689 16.8375 6.37503C16.8375 5.83316 16.7307 5.2966 16.5233 4.79601C16.3159 4.29542 16.0119 3.84059 15.6286 3.45753Z" stroke="white" stroke-width="1.5" stroke-linecap="round" stroke-linejoin="round" />
</symbol>

<symbol id="icon-paw" width="34" height="34" viewBox="0 0 34 34" fill="none">
  <path d="M13.2812 5.3125C12.1444 5.3125 11.1541 5.9585 10.5251 6.84038C9.89613 7.72225 9.5625 8.86125 9.5625 10.0938C9.5625 11.3263 9.89613 12.4663 10.5251 13.3482C11.1541 14.2301 12.1444 14.875 13.2812 14.875C14.4181 14.875 15.4084 14.229 16.0374 13.3471C16.6664 12.4653 17 11.3263 17 10.0938C17 8.86125 16.6664 7.72119 16.0374 6.83931C15.4084 5.95744 14.4181 5.3125 13.2812 5.3125ZM17 10.0938C17 11.3263 17.3336 12.4663 17.9626 13.3482C18.5916 14.2301 19.5829 14.875 20.7188 14.875C21.8556 14.875 22.8459 14.229 23.4749 13.3471C24.1039 12.4653 24.4375 11.3263 24.4375 10.0938C24.4375 8.86125 24.1039 7.72119 23.4749 6.83931C22.8459 5.95744 21.8556 5.3125 20.7188 5.3125C19.5819 5.3125 18.5916 5.9585 17.9626 6.84038C17.3336 7.72225 17 8.86125 17 10.0938ZM13.2812 7.4375C13.6128 7.4375 13.9783 7.60325 14.3119 8.06862C14.6413 8.53294 14.875 9.27244 14.875 10.0938C14.875 10.9151 14.6413 11.6556 14.3119 12.1189C13.9783 12.5842 13.6128 12.75 13.2812 12.75C12.9497 12.75 12.5842 12.5842 12.2506 12.1189C11.9212 11.6546 11.6875 10.9151 11.6875 10.0938C11.6875 9.27244 11.9212 8.53187 12.2506 8.06862C12.5842 7.60325 12.9497 7.4375 13.2812 7.4375ZM20.7188 7.4375C21.0502 7.4375 21.4157 7.60325 21.7494 8.06862C22.0787 8.53294 22.3125 9.27244 22.3125 10.0938C22.3125 10.9151 22.0787 11.6556 21.7494 12.1189C21.4157 12.5842 21.0502 12.75 20.7188 12.75C20.3873 12.75 20.0218 12.5842 19.6881 12.1189C19.3588 11.6546 19.125 10.9151 19.125 10.0938C19.125 9.27244 19.3588 8.53187 19.6881 8.06862C20.0218 7.60325 20.3873 7.4375 20.7188 7.4375ZM7.96875 12.75C6.83187 12.75 5.84163 13.396 5.21263 14.2779C4.58363 15.1597 4.25 16.2987 4.25 17.5312C4.25 18.7638 4.58363 19.9038 5.21263 20.7857C5.84163 21.6676 6.83187 22.3125 7.96875 22.3125C9.10563 22.3125 10.0959 21.6665 10.7249 20.7846C11.3539 19.9028 11.6875 18.7638 11.6875 17.5312C11.6875 16.2987 11.3539 15.1587 10.7249 14.2768C10.0959 13.3949 9.10563 12.75 7.96875 12.75ZM26.0312 12.75C24.8944 12.75 23.9041 13.396 23.2751 14.2779C22.6461 15.1597 22.3125 16.2987 22.3125 17.5312C22.3125 18.7638 22.6461 19.9038 23.2751 20.7857C23.9041 21.6676 24.8944 22.3125 26.0312 22.3125C27.1681 22.3125 28.1584 21.6665 28.7874 20.7846C29.4164 19.9028 29.75 18.7638 29.75 17.5312C29.75 16.2987 29.4164 15.1587 28.7874 14.2768C28.1584 13.3949 27.1681 12.75 26.0312 12.75ZM7.96875 14.875C8.30025 14.875 8.66575 15.0407 8.99938 15.5061C9.32875 15.9704 9.5625 16.7099 9.5625 17.5312C9.5625 18.3526 9.32875 19.0931 8.99938 19.5564C8.66575 20.0218 8.30025 20.1875 7.96875 20.1875C7.63725 20.1875 7.27175 20.0218 6.93813 19.5564C6.60875 19.0931 6.375 18.3526 6.375 17.5312C6.375 16.7099 6.60875 15.9694 6.93813 15.5061C7.27175 15.0407 7.63725 14.875 7.96875 14.875ZM26.0312 14.875C26.3627 14.875 26.7282 15.0407 27.0619 15.5061C27.3912 15.9704 27.625 16.7099 27.625 17.5312C27.625 18.3526 27.3912 19.0931 27.0619 19.5564C26.7282 20.0218 26.3627 20.1875 26.0312 20.1875C25.6998 20.1875 25.3343 20.0218 25.0006 19.5564C24.6713 19.0921 24.4375 18.3526 24.4375 17.5312C24.4375 16.7099 24.6713 15.9694 25.0006 15.5061C25.3343 15.0407 25.6998 14.875 26.0312 14.875ZM17 17C15.5837 17 14.5956 17.9191 14.11 18.7266C13.6276 19.5341 13.3301 20.2056 13.0475 20.4861C12.8849 20.6529 11.8596 21.0386 10.7908 21.5836C10.2563 21.8567 9.71762 22.2211 9.26394 22.7789C8.80706 23.3368 8.49894 24.1071 8.49894 24.9709C8.49894 27.0109 10.1777 28.6896 12.2177 28.6896C13.1378 28.6896 14.0983 28.3921 15.0386 28.1265C15.9832 27.8545 17 27.625 17 27.625C17 27.625 18.0168 27.8545 18.9592 28.1244C19.9006 28.39 20.8611 28.6875 21.7812 28.6875C23.8212 28.6875 25.5 27.0087 25.5 24.9688C25.5 24.1251 25.1887 23.3537 24.735 22.8119C24.2834 22.2668 23.7394 21.93 23.2092 21.6484C22.1467 21.0853 21.1023 20.6391 20.9514 20.4861C20.6964 20.2343 20.4096 19.5404 19.9208 18.7287C19.4331 17.9138 18.4237 17 17 17ZM17 19.125C17.7013 19.125 17.7788 19.295 18.0944 19.822C18.4131 20.3479 18.6511 21.2415 19.4225 22.0139C20.2991 22.8852 21.4062 23.0764 22.2126 23.5057C22.6164 23.7203 22.9245 23.9487 23.1094 24.1697C23.2932 24.3897 23.375 24.5905 23.375 24.9666C23.375 25.8591 22.6737 26.5604 21.7812 26.5604C21.4731 26.5604 20.4808 26.3266 19.5564 26.061C18.632 25.7986 17.867 25.4979 17 25.4979C16.133 25.4979 15.368 25.7986 14.4436 26.061C13.5192 26.3266 12.5269 26.5604 12.2188 26.5604C11.3263 26.5604 10.625 25.8591 10.625 24.9666C10.625 24.5384 10.7143 24.3185 10.8906 24.1017C11.067 23.8861 11.3921 23.6725 11.7874 23.4717C12.5779 23.0679 13.6786 22.9086 14.5764 22.0107C15.3552 21.2277 15.589 20.3054 15.9046 19.7848C16.2148 19.2642 16.2892 19.1208 16.9989 19.1208L17 19.125Z" fill="#F6B83D" />
</symbol>

<symbol id="icon-upload" width="16" height="16" viewBox="0 0 16 16" fill="none">
  <path d="M10.6673 10.6667L8.00065 8L5.33398 10.6667" stroke="#F6B83D" stroke-linecap="round" stroke-linejoin="round" />
  <path d="M8 8V14" stroke="#F6B83D" stroke-linecap="round" stroke-linejoin="round" />
  <path d="M13.5943 12.26C14.2445 11.9055 14.7582 11.3446 15.0542 10.6657C15.3502 9.9869 15.4118 9.22881 15.2291 8.51112C15.0464 7.79343 14.6299 7.157 14.0454 6.70229C13.4608 6.24758 12.7415 6.00048 12.0009 5.99999H11.1609C10.9592 5.21949 10.5831 4.49488 10.0609 3.88066C9.53877 3.26643 8.88418 2.77856 8.14635 2.45373C7.40852 2.1289 6.60665 1.97557 5.80103 2.00525C4.9954 2.03493 4.20699 2.24686 3.49507 2.6251C2.78314 3.00335 2.16622 3.53806 1.6907 4.18905C1.21517 4.84003 0.89341 5.59035 0.749603 6.38359C0.605797 7.17683 0.643687 7.99235 0.860425 8.76883C1.07716 9.54532 1.46711 10.2626 2.00095 10.8667" stroke="#F6B83D" stroke-linecap="round" stroke-linejoin="round" />
  <path d="M10.6673 10.6667L8.00065 8L5.33398 10.6667" stroke="#F6B83D" stroke-linecap="round" stroke-linejoin="round" />
</symbol>

<symbol id="icon-female-white" width="24" height="24" viewBox="0 0 24 24" fill="none">
  <path d="M12 13C14.7614 13 17 10.7614 17 8C17 5.23858 14.7614 3 12 3C9.23858 3 7 5.23858 7 8C7 10.7614 9.23858 13 12 13ZM12 13L12 21M9 18L15 18" stroke="white" stroke-width="1.5" stroke-linecap="round" stroke-linejoin="round" />
</symbol>

<symbol id="icon-male-white" width="24" height="24" viewBox="0 0 24 24" fill="none">
  <path d="M12 11C9.23858 11 7 13.2386 7 16C7 18.7614 9.23858 21 12 21C14.7614 21 17 18.7614 17 16C17 13.2386 14.7614 11 12 11ZM12 11V3M12 3L16 7M12 3L8 7" stroke="white" stroke-width="1.5" stroke-linecap="round" stroke-linejoin="round" />
</symbol>

<symbol id="icon-multiple-white" width="24" height="24" viewBox="0 0 24 24" fill="none">
  <path fill-rule="evenodd" clip-rule="evenodd" d="M8.77074 7.74498C8.05311 7.46474 7.26305 7.42921 6.52317 7.6439C5.78328 7.85858 5.13495 8.31149 4.67878 8.93232C4.22261 9.55315 3.98411 10.3072 4.00031 11.0774C4.0165 11.8477 4.28647 12.591 4.76833 13.1921C5.25019 13.7932 5.91699 14.2185 6.66524 14.4019C7.41349 14.5853 8.20136 14.5166 8.90658 14.2064C9.61179 13.8963 10.1949 13.362 10.5655 12.6866C10.936 12.0111 11.0732 11.2323 10.9558 10.4709C10.9459 10.406 10.9488 10.3398 10.9644 10.276C10.98 10.2123 11.008 10.1522 11.0468 10.0993C11.0857 10.0463 11.1345 10.0016 11.1906 9.96753C11.2468 9.93349 11.309 9.91083 11.3739 9.90085C11.4388 9.89088 11.505 9.89378 11.5688 9.90939C11.6325 9.925 11.6926 9.95302 11.7455 9.99184C11.7985 10.0307 11.8432 10.0795 11.8773 10.1357C11.9113 10.1918 11.934 10.2541 11.9439 10.3189C12.0947 11.2979 11.9181 12.2992 11.4416 13.1675C10.9651 14.0358 10.2153 14.7226 9.30862 15.1213C8.40192 15.5199 7.38899 15.6081 6.42701 15.3723C5.46503 15.1364 4.6078 14.5896 3.98833 13.8168C3.36886 13.0439 3.0218 12.0882 3.00099 11.098C2.98019 10.1077 3.28681 9.1383 3.87327 8.34011C4.45974 7.54193 5.29325 6.95963 6.24448 6.68357C7.1957 6.40752 8.21144 6.45314 9.13409 6.81336C9.19607 6.8366 9.25281 6.87192 9.30102 6.91728C9.34923 6.96263 9.38796 7.0171 9.41495 7.07754C9.44194 7.13798 9.45665 7.20318 9.45824 7.26935C9.45982 7.33553 9.44825 7.40135 9.42418 7.46302C9.40012 7.52468 9.36405 7.58095 9.31806 7.62856C9.27208 7.67617 9.21709 7.71417 9.1563 7.74035C9.09551 7.76654 9.03012 7.78038 8.96393 7.78109C8.89775 7.7818 8.83208 7.76986 8.77074 7.74498Z" fill="white" />
  <path fill-rule="evenodd" clip-rule="evenodd" d="M6.99805 19.5002V15.5018C6.99805 15.3693 7.0507 15.2421 7.14443 15.1484C7.23816 15.0547 7.36529 15.002 7.49784 15.002C7.6304 15.002 7.75752 15.0547 7.85125 15.1484C7.94498 15.2421 7.99764 15.3693 7.99764 15.5018V19.5002C7.99764 19.6328 7.94498 19.7599 7.85125 19.8536C7.75752 19.9473 7.6304 20 7.49784 20C7.36529 20 7.23816 19.9473 7.14443 19.8536C7.0507 19.7599 6.99805 19.6328 6.99805 19.5002Z" fill="white" />
  <path fill-rule="evenodd" clip-rule="evenodd" d="M5.49902 17.0012C5.49902 16.8687 5.55168 16.7415 5.64541 16.6478C5.73914 16.5541 5.86627 16.5014 5.99882 16.5014H8.9976C9.13016 16.5014 9.25728 16.5541 9.35101 16.6478C9.44474 16.7415 9.4974 16.8687 9.4974 17.0012C9.4974 17.1338 9.44474 17.2609 9.35101 17.3546C9.25728 17.4484 9.13016 17.501 8.9976 17.501H5.99882C5.86627 17.501 5.73914 17.4484 5.64541 17.3546C5.55168 17.2609 5.49902 17.1338 5.49902 17.0012ZM14.4464 7.63652C13.8925 7.48016 13.3086 7.46285 12.7464 7.58613C12.1843 7.70942 11.6612 7.96948 11.2236 8.34328C10.786 8.71708 10.4473 9.19307 10.2377 9.72906C10.028 10.265 9.95383 10.8445 10.0217 11.416C10.0298 11.4813 10.0249 11.5476 10.0073 11.6111C9.98972 11.6746 9.95975 11.7339 9.91914 11.7858C9.87853 11.8376 9.82808 11.8809 9.77068 11.9132C9.71328 11.9455 9.65006 11.9661 9.58467 11.9738C9.51928 11.9816 9.45299 11.9764 9.38963 11.9585C9.32626 11.9405 9.26707 11.9103 9.21544 11.8694C9.16381 11.8285 9.12077 11.7778 9.08879 11.7203C9.05681 11.6627 9.03652 11.5994 9.02909 11.5339C8.91232 10.5504 9.12346 9.55573 9.62975 8.70441C10.136 7.85309 10.9092 7.19268 11.8292 6.82567C12.7491 6.45865 13.7645 6.40555 14.7178 6.67462C15.671 6.94368 16.5088 7.51985 17.1011 8.31372C17.6935 9.10759 18.0072 10.0748 17.9936 11.0652C17.9801 12.0556 17.64 13.0138 17.0262 13.7912C16.4124 14.5686 15.5592 15.1216 14.5989 15.3645C13.6387 15.6074 12.6251 15.5265 11.7155 15.1345C11.6552 15.1085 11.6006 15.0709 11.5549 15.0239C11.5091 14.9768 11.4731 14.9212 11.4488 14.8602C11.3998 14.7371 11.4017 14.5995 11.4541 14.4777C11.5065 14.356 11.6052 14.2601 11.7283 14.211C11.8515 14.162 11.9891 14.1639 12.1108 14.2163C12.5506 14.4058 13.0245 14.503 13.5033 14.5019C13.9821 14.5008 14.4556 14.4014 14.8944 14.2099C15.3332 14.0184 15.7281 13.7389 16.0546 13.3886C16.381 13.0384 16.6321 12.6248 16.7922 12.1736C16.9524 11.7224 17.0182 11.2431 16.9857 10.7654C16.9531 10.2877 16.8229 9.8218 16.603 9.39649C16.3831 8.97117 16.0782 8.59552 15.7072 8.29279C15.3363 7.99006 14.9072 7.7667 14.4464 7.63652Z" fill="white" />
  <path fill-rule="evenodd" clip-rule="evenodd" d="M16.3915 8.60812C16.2978 8.51439 16.2451 8.38729 16.2451 8.25476C16.2451 8.12223 16.2978 7.99513 16.3915 7.90141L20.1399 4.15293C20.186 4.10519 20.2412 4.06712 20.3022 4.04092C20.3631 4.01473 20.4287 4.00094 20.4951 4.00037C20.5614 3.99979 20.6273 4.01244 20.6887 4.03757C20.7501 4.0627 20.8059 4.09981 20.8528 4.14673C20.8998 4.19366 20.9369 4.24946 20.962 4.31089C20.9871 4.37231 20.9998 4.43812 20.9992 4.50449C20.9986 4.57085 20.9848 4.63643 20.9586 4.69741C20.9325 4.75839 20.8944 4.81354 20.8466 4.85964L17.0982 8.60812C17.0044 8.70182 16.8773 8.75445 16.7448 8.75445C16.6123 8.75445 16.4852 8.70182 16.3915 8.60812Z" fill="white" />
  <path fill-rule="evenodd" clip-rule="evenodd" d="M20.455 7.50508C20.3893 7.50423 20.3245 7.49046 20.2642 7.46456C20.2039 7.43865 20.1493 7.40112 20.1035 7.35411C20.0577 7.30709 20.0216 7.25151 19.9972 7.19055C19.9729 7.12958 19.9608 7.06442 19.9617 6.99878L19.9867 5.01259L18.0005 5.03758C17.8679 5.0393 17.7401 4.9883 17.6452 4.89579C17.5502 4.80327 17.4959 4.67683 17.4942 4.54428C17.4925 4.41172 17.5435 4.28391 17.636 4.18897C17.7285 4.09402 17.8549 4.03971 17.9875 4.03798L20.9993 4L20.9613 7.01178C20.9604 7.07741 20.9467 7.14224 20.9208 7.20255C20.8949 7.26287 20.8573 7.31749 20.8103 7.3633C20.7633 7.4091 20.7077 7.4452 20.6467 7.46953C20.5858 7.49386 20.5206 7.50594 20.455 7.50508Z" fill="white" />
</symbol>

  </defs>
</svg>
