<svg aria-hidden="true" style="position:absolute;width:0;height:0;overflow:hidden" xmlns="http://www.w3.org/2000/svg">
  <defs>
    <symbol id="icon-heart" viewBox="0 0 32 32">
      <path fill="none" stroke="#f6b83d" style="stroke:var(--color1, #f6b83d)" stroke-linejoin="round" stroke-linecap="round" stroke-width="2.667" d="M27.788 6.147a7.345 7.345 0 0 0-5.187-2.15 7.33 7.33 0 0 0-5.187 2.15L16.001 7.56l-1.413-1.413a7.333 7.333 0 0 0-10.374 0 7.333 7.333 0 0 0 0 10.374l11.787 11.787 11.787-11.787a7.345 7.345 0 0 0 2.149-5.187 7.33 7.33 0 0 0-2.149-5.187z"/>
    </symbol>
    <symbol id="icon-calendar" viewBox="0 0 32 32">
      <path stroke-linejoin="round" stroke-linecap="round" stroke-width="2.88" d="M25.333 5.333H6.666A2.667 2.667 0 0 0 3.999 8v18.667a2.667 2.667 0 0 0 2.667 2.667h18.667A2.667 2.667 0 0 0 28 26.667V8a2.667 2.667 0 0 0-2.667-2.667zM21.333 2.667V8M10.667 2.667V8M4 13.333h24"/>
    </symbol>
    <symbol id="icon-chevron-down" viewBox="0 0 32 32">
      <path stroke-linejoin="round" stroke-linecap="round" stroke-width="3.556" d="m8 12 8 8 8-8"/>
    </symbol>
    <symbol id="icon-cross-small" viewBox="0 0 32 32">
      <path fill="none" stroke="#ef2447" style="stroke:var(--color2, #ef2447)" stroke-linejoin="round" stroke-linecap="round" stroke-width="2.909" d="M25.333 6.667 6.666 25.334m0-18.667 18.667 18.667"/>
    </symbol>
    <symbol id="icon-cross-smallq" viewBox="0 0 32 32">
      <path  stroke-linejoin="round" stroke-linecap="round" stroke-width="2.909" d="M25.333 6.667 6.666 25.334m0-18.667 18.667 18.667"/>
    </symbol>
    <symbol id="icon-edit-2pen" viewBox="0 0 32 32">
      <path fill="none" stroke="#f6b83d" style="stroke:var(--color1, #f6b83d)" stroke-linejoin="round" stroke-linecap="round" stroke-width="2.667" d="M22.667 4a3.766 3.766 0 0 1 4.109-.817 3.766 3.766 0 0 1 2.327 3.484 3.779 3.779 0 0 1-1.104 2.666l-18 18-7.333 2 2-7.333 18-18z"/>
    </symbol>
    <symbol id="icon-eye-off" viewBox="0 0 32 32">
      <path fill="none" stroke="#f6b83d" style="stroke:var(--color1, #f6b83d)" stroke-linejoin="round" stroke-linecap="round" stroke-width="2.133" d="M21.809 17.541a9.844 9.844 0 0 1-5.808 2.014c-6.844 0-10.756-7.822-10.756-7.822a18.025 18.025 0 0 1 4.948-5.808m3.755-1.779a8.925 8.925 0 0 1 2.053-.235c6.844 0 10.756 7.822 10.756 7.822a18.037 18.037 0 0 1-2.112 3.119m-6.571-1.046a2.939 2.939 0 0 1-2.094.934 2.939 2.939 0 0 1-2.772-1.835 2.924 2.924 0 0 1 .041-2.292c.161-.36.391-.684.68-.952M5.246.978l21.511 21.511"/>
    </symbol>
    <symbol id="icon-eye" viewBox="0 0 32 32">
      <path fill="none" stroke="#f6b83d" style="stroke:var(--color1, #f6b83d)" stroke-linejoin="round" stroke-linecap="round" stroke-width="2.909" d="M1.332 16S6.665 5.333 15.999 5.333 30.666 16 30.666 16s-5.333 10.667-14.667 10.667C6.666 26.667 1.332 16 1.332 16z"/>
      <path fill="none" stroke="#f6b83d" style="stroke:var(--color1, #f6b83d)" stroke-linejoin="round" stroke-linecap="round" stroke-width="2.909" d="M16 20a4 4 0 1 0 0-8 4 4 0 0 0 0 8z"/>
    </symbol>
    <symbol id="icon-female" viewBox="0 0 32 32">
      <path fill="none" stroke="#f43f5e" style="stroke:var(--color3, #f43f5e)" stroke-linejoin="round" stroke-linecap="round" stroke-width="2.4" d="M16 17.6a8 8 0 1 0 0-16 8 8 0 0 0 0 16zm0 0v12.8m-4.8-4.8h9.6"/>
    </symbol>
    <symbol id="icon-green" viewBox="0 0 32 32">
      <path fill="none" stroke="#08aa83" style="stroke:var(--color4, #08aa83)" stroke-linejoin="round" stroke-linecap="round" stroke-width="2.667" d="M29.038 6.963 11.112 24.889l-8.148-8.148"/>
    </symbol>
    <symbol id="icon-Group" viewBox="0 0 32 32">
      <path fill="#f6b83d" style="fill:var(--color1, #f6b83d)" d="M10.259 8.436a6.213 6.213 0 0 0-7.275 2.111 6.218 6.218 0 0 0 7.516 9.375 6.217 6.217 0 0 0 3.643-6.641.877.877 0 0 1 .162-.66.88.88 0 0 1 .582-.353.877.877 0 0 1 .66.162.88.88 0 0 1 .353.582A7.998 7.998 0 0 1 1.757 19.23 7.998 7.998 0 0 1 5.768 6.549a7.99 7.99 0 0 1 5.137.231.884.884 0 0 1 .5.47.888.888 0 0 1-1.146 1.186z"/>
      <path fill="#f6b83d" style="fill:var(--color1, #f6b83d)" d="M7.108 29.334v-7.108a.889.889 0 0 1 1.776 0v7.108a.889.889 0 0 1-1.776 0z"/>
      <path fill="#f6b83d" style="fill:var(--color1, #f6b83d)" d="M4.443 24.891a.889.889 0 0 1 .888-.888h5.331a.889.889 0 0 1 0 1.776H5.331a.884.884 0 0 1-.888-.888zM20.349 8.243a6.221 6.221 0 0 0-7.482 3.72 6.212 6.212 0 0 0-.384 2.999.884.884 0 0 1-.183.657.9.9 0 0 1-.595.335.885.885 0 0 1-.988-.781 7.993 7.993 0 0 1 4.978-8.37 8 8 0 0 1 10.959 7.536 7.999 7.999 0 0 1-11.161 7.234.893.893 0 0 1-.466-1.168.886.886 0 0 1 1.168-.464 6.206 6.206 0 0 0 4.949-.011 6.22 6.22 0 0 0-.796-11.686z"/>
      <path fill="#f6b83d" style="fill:var(--color1, #f6b83d)" d="M23.807 9.97a.888.888 0 0 1 0-1.256l6.664-6.664a.9.9 0 0 1 .976-.205.883.883 0 0 1 .552.83.897.897 0 0 1-.271.631L25.064 9.97a.888.888 0 0 1-1.256 0z"/>
      <path fill="#f6b83d" style="fill:var(--color1, #f6b83d)" d="M31.031 8.009a.896.896 0 0 1-.625-.268.89.89 0 0 1-.252-.632l.044-3.531-3.531.044a.891.891 0 0 1-.9-.877.891.891 0 0 1 .877-.9l5.354-.068-.068 5.354a.896.896 0 0 1-.268.625.89.89 0 0 1-.632.252z"/>
    </symbol>
    <symbol id="icon-male" viewBox="0 0 32 32">
      <path fill="none" stroke="#54adff" style="stroke:var(--color5, #54adff)" stroke-linejoin="round" stroke-linecap="round" stroke-width="2.4" d="M16 14.4a8 8 0 1 0 0 16 8 8 0 0 0 0-16zm0 0V1.6m0 0L22.4 8M16 1.6 9.6 8"/>
    </symbol>
    <symbol id="icon-pipl" viewBox="0 0 32 32">
      <path fill="#fff4df" style="fill:var(--color6, #fff4df)" d="M32 16c0 8.837-7.163 16-16 16S0 24.837 0 16 7.163 0 16 0s16 7.163 16 16z"/>
      <path fill="#f6b83d" style="fill:var(--color1, #f6b83d);stroke:var(--color1, #f6b83d)" stroke="#f6b83d" stroke-linejoin="round" stroke-linecap="round" stroke-width="1.28" d="M16 17.92c-2.029 0-3.833.98-4.982 2.5-.247.327-.371.491-.367.712.003.171.11.386.245.492.174.137.415.137.897.137h8.413c.482 0 .723 0 .897-.137a.714.714 0 0 0 .245-.492c.004-.221-.12-.385-.367-.712-1.149-1.52-2.953-2.5-4.982-2.5zM16 16a2.88 2.88 0 1 0 .001-5.759A2.88 2.88 0 0 0 16 16z"/>
    </symbol>
    <symbol id="icon-search" viewBox="0 0 32 32">
      <path stroke-linejoin="round" stroke-linecap="round" stroke-width="3.556" d="M14.667 25.333c5.891 0 10.667-4.776 10.667-10.667S20.558 3.999 14.667 3.999 4 8.775 4 14.666s4.776 10.667 10.667 10.667zM28.001 28l-5.8-5.8"/>
    </symbol>
    <symbol id="icon-star" viewBox="0 0 32 32">
      <path fill="#ffc531" style="fill:var(--color7, #ffc531);stroke:var(--color7, #ffc531)" stroke="#ffc531" stroke-width="2.4" d="M12.4 9.394 16 2.572l3.6 6.822a2.2 2.2 0 0 0 1.571 1.141l7.601 1.315-5.376 5.532a2.2 2.2 0 0 0-.6 1.846l1.098 7.635-6.922-3.404a2.199 2.199 0 0 0-1.941 0l-6.922 3.404 1.098-7.635a2.2 2.2 0 0 0-.6-1.846L3.231 11.85l7.601-1.315a2.202 2.202 0 0 0 1.571-1.141zm16.635 2.185zM7.767 27.031z"/>
    </symbol>
    <symbol id="icon-trash-2" viewBox="0 0 32 32">
      <path fill="none" stroke="#f6b83d" style="stroke:var(--color1, #f6b83d)" stroke-linejoin="round" stroke-linecap="round" stroke-width="2.667" d="M4 8h24M25.333 8v18.667a2.668 2.668 0 0 1-2.667 2.667H9.333a2.668 2.668 0 0 1-2.667-2.667V8m4.001 0V5.333a2.668 2.668 0 0 1 2.667-2.667h5.333a2.668 2.668 0 0 1 2.667 2.667V8M13.333 14.667v8M18.667 14.667v8"/>
    </symbol>
    <symbol id="icon-hearFill" viewBox="0 0 36 32">
<path   d="M17.988 4.396c-3.519-4.155-9.387-5.272-13.796-1.468s-5.030 10.165-1.567 14.665c2.218 2.882 7.897 8.226 11.694 11.696 1.262 1.153 1.893 1.73 2.648 1.961 0.65 0.199 1.392 0.199 2.041 0 0.756-0.231 1.387-0.808 2.648-1.961 3.797-3.47 9.476-8.814 11.694-11.696 3.462-4.5 2.917-10.9-1.567-14.665s-10.277-2.687-13.796 1.468z"></path>
</symbol>
<symbol id="icon-menu-01" viewBox="0 0 32 32">
<path fill="none" stroke="#fff" style="stroke: var(--color1, #fff)" stroke-linejoin="round" stroke-linecap="round" stroke-miterlimit="4" stroke-width="3" d="M4 16h24"></path>
<path fill="none" stroke="#fff" style="stroke: var(--color1, #fff)" stroke-linejoin="round" stroke-linecap="round" stroke-miterlimit="4" stroke-width="3" d="M4 8h24"></path>
<path fill="none" stroke="#fff" style="stroke: var(--color1, #fff)" stroke-linejoin="round" stroke-linecap="round" stroke-miterlimit="4" stroke-width="3" d="M4 24h24"></path>
</symbol>

<symbol id="icon-close" viewBox="0 0 32 32">
<path d="M24 8L8 24" stroke="#262626" stroke-width="3" stroke-linecap="round" stroke-linejoin="round" />
  <path d="M8 8L24 24" stroke="#262626" stroke-width="3" stroke-linecap="round" stroke-linejoin="round" />
</symbol>

<symbol id="icon-close2" viewBox="0 0 32 32">
  <path d="M24 8L8 24" stroke="white" stroke-width="3" stroke-linecap="round" stroke-linejoin="round" />
  <path d="M8 8L24 24" stroke="white" stroke-width="3" stroke-linecap="round" stroke-linejoin="round" />
</symbol>

<symbol id="icon-menu-03" viewBox="0 0 32 32">
<path d="M4 16H28" stroke="#262626" stroke-width="3" stroke-linecap="round" stroke-linejoin="round"/>
<path d="M4 8H28" stroke="#262626" stroke-width="3" stroke-linecap="round" stroke-linejoin="round"/>
<path d="M4 24H28" stroke="#262626" stroke-width="3" stroke-linecap="round" stroke-linejoin="round"/>
</symbol>

<symbol id="icon-loofah" viewBox="0 0 18 18" fill="none">
  <path d="M8.25 14.25C11.5637 14.25 14.25 11.5637 14.25 8.25C14.25 4.93629 11.5637 2.25 8.25 2.25C4.93629 2.25 2.25 4.93629 2.25 8.25C2.25 11.5637 4.93629 14.25 8.25 14.25Z" stroke="#262626" stroke-width="1.5" stroke-linecap="round" stroke-linejoin="round" />
  <path d="M15.7508 15.75L12.4883 12.4875" stroke="#262626" stroke-width="1.5" stroke-linecap="round" stroke-linejoin="round" />
</symbol>

<symbol id="icon-cross" viewBox="0 0 18 18" fill="none" >
  <path d="M14.25 3.75L3.75 14.25M3.75003 3.75L14.25 14.25" stroke="#262626" stroke-width="1.5" stroke-linecap="round" stroke-linejoin="round" />
</symbol>

<symbol id="icon-user-white" width="18" height="18" viewBox="0 0 18 18" fill="none">
  <path d="M9.00038 11.25C6.62282 11.25 4.50847 12.398 3.16237 14.1795C2.87265 14.5629 2.7278 14.7546 2.73253 15.0137C2.7362 15.2139 2.8619 15.4664 3.0194 15.59C3.22327 15.75 3.50578 15.75 4.0708 15.75H13.93C14.495 15.75 14.7775 15.75 14.9814 15.59C15.1389 15.4664 15.2646 15.2139 15.2682 15.0137C15.273 14.7546 15.1281 14.5629 14.8384 14.1795C13.4923 12.398 11.3779 11.25 9.00038 11.25Z" fill="white" stroke="white" stroke-width="2" stroke-linecap="round" stroke-linejoin="round" />
  <path d="M9 9C10.864 9 12.375 7.48896 12.375 5.625C12.375 3.76104 10.864 2.25 9 2.25C7.13604 2.25 5.625 3.76104 5.625 5.625C5.625 7.48896 7.13604 9 9 9Z" fill="white" stroke="white" stroke-width="2" stroke-linecap="round" stroke-linejoin="round" />
</symbol>

<symbol id="icon-plus" width="18" height="18" viewBox="0 0 18 18" fill="none">
  <path d="M9 3.75V14.25" stroke="white" stroke-width="1.5" stroke-linecap="round" stroke-linejoin="round" />
  <path d="M3.75 9H14.25" stroke="white" stroke-width="1.5" stroke-linecap="round" stroke-linejoin="round" />
</symbol>

<symbol id="icon-heart-white" width="18" height="18" viewBox="0 0 18 18" fill="none">
  <path d="M15.6286 3.45753C15.2456 3.07428 14.7907 2.77026 14.2901 2.56284C13.7895 2.35542 13.253 2.24866 12.7111 2.24866C12.1693 2.24866 11.6327 2.35542 11.1321 2.56284C10.6315 2.77026 10.1767 3.07428 9.79362 3.45753L8.99862 4.25253L8.20362 3.45753C7.42985 2.68376 6.3804 2.24906 5.28612 2.24906C4.19185 2.24906 3.14239 2.68376 2.36862 3.45753C1.59486 4.2313 1.16016 5.28075 1.16016 6.37503C1.16016 7.4693 1.59486 8.51876 2.36862 9.29253L3.16362 10.0875L8.99862 15.9225L14.8336 10.0875L15.6286 9.29253C16.0119 8.90946 16.3159 8.45464 16.5233 7.95404C16.7307 7.45345 16.8375 6.91689 16.8375 6.37503C16.8375 5.83316 16.7307 5.2966 16.5233 4.79601C16.3159 4.29542 16.0119 3.84059 15.6286 3.45753Z" stroke="white" stroke-width="1.5" stroke-linecap="round" stroke-linejoin="round" />
</symbol>

<symbol id="icon-paw" width="34" height="34" viewBox="0 0 34 34" fill="none">
  <path d="M13.2812 5.3125C12.1444 5.3125 11.1541 5.9585 10.5251 6.84038C9.89613 7.72225 9.5625 8.86125 9.5625 10.0938C9.5625 11.3263 9.89613 12.4663 10.5251 13.3482C11.1541 14.2301 12.1444 14.875 13.2812 14.875C14.4181 14.875 15.4084 14.229 16.0374 13.3471C16.6664 12.4653 17 11.3263 17 10.0938C17 8.86125 16.6664 7.72119 16.0374 6.83931C15.4084 5.95744 14.4181 5.3125 13.2812 5.3125ZM17 10.0938C17 11.3263 17.3336 12.4663 17.9626 13.3482C18.5916 14.2301 19.5829 14.875 20.7188 14.875C21.8556 14.875 22.8459 14.229 23.4749 13.3471C24.1039 12.4653 24.4375 11.3263 24.4375 10.0938C24.4375 8.86125 24.1039 7.72119 23.4749 6.83931C22.8459 5.95744 21.8556 5.3125 20.7188 5.3125C19.5819 5.3125 18.5916 5.9585 17.9626 6.84038C17.3336 7.72225 17 8.86125 17 10.0938ZM13.2812 7.4375C13.6128 7.4375 13.9783 7.60325 14.3119 8.06862C14.6413 8.53294 14.875 9.27244 14.875 10.0938C14.875 10.9151 14.6413 11.6556 14.3119 12.1189C13.9783 12.5842 13.6128 12.75 13.2812 12.75C12.9497 12.75 12.5842 12.5842 12.2506 12.1189C11.9212 11.6546 11.6875 10.9151 11.6875 10.0938C11.6875 9.27244 11.9212 8.53187 12.2506 8.06862C12.5842 7.60325 12.9497 7.4375 13.2812 7.4375ZM20.7188 7.4375C21.0502 7.4375 21.4157 7.60325 21.7494 8.06862C22.0787 8.53294 22.3125 9.27244 22.3125 10.0938C22.3125 10.9151 22.0787 11.6556 21.7494 12.1189C21.4157 12.5842 21.0502 12.75 20.7188 12.75C20.3873 12.75 20.0218 12.5842 19.6881 12.1189C19.3588 11.6546 19.125 10.9151 19.125 10.0938C19.125 9.27244 19.3588 8.53187 19.6881 8.06862C20.0218 7.60325 20.3873 7.4375 20.7188 7.4375ZM7.96875 12.75C6.83187 12.75 5.84163 13.396 5.21263 14.2779C4.58363 15.1597 4.25 16.2987 4.25 17.5312C4.25 18.7638 4.58363 19.9038 5.21263 20.7857C5.84163 21.6676 6.83187 22.3125 7.96875 22.3125C9.10563 22.3125 10.0959 21.6665 10.7249 20.7846C11.3539 19.9028 11.6875 18.7638 11.6875 17.5312C11.6875 16.2987 11.3539 15.1587 10.7249 14.2768C10.0959 13.3949 9.10563 12.75 7.96875 12.75ZM26.0312 12.75C24.8944 12.75 23.9041 13.396 23.2751 14.2779C22.6461 15.1597 22.3125 16.2987 22.3125 17.5312C22.3125 18.7638 22.6461 19.9038 23.2751 20.7857C23.9041 21.6676 24.8944 22.3125 26.0312 22.3125C27.1681 22.3125 28.1584 21.6665 28.7874 20.7846C29.4164 19.9028 29.75 18.7638 29.75 17.5312C29.75 16.2987 29.4164 15.1587 28.7874 14.2768C28.1584 13.3949 27.1681 12.75 26.0312 12.75ZM7.96875 14.875C8.30025 14.875 8.66575 15.0407 8.99938 15.5061C9.32875 15.9704 9.5625 16.7099 9.5625 17.5312C9.5625 18.3526 9.32875 19.0931 8.99938 19.5564C8.66575 20.0218 8.30025 20.1875 7.96875 20.1875C7.63725 20.1875 7.27175 20.0218 6.93813 19.5564C6.60875 19.0931 6.375 18.3526 6.375 17.5312C6.375 16.7099 6.60875 15.9694 6.93813 15.5061C7.27175 15.0407 7.63725 14.875 7.96875 14.875ZM26.0312 14.875C26.3627 14.875 26.7282 15.0407 27.0619 15.5061C27.3912 15.9704 27.625 16.7099 27.625 17.5312C27.625 18.3526 27.3912 19.0931 27.0619 19.5564C26.7282 20.0218 26.3627 20.1875 26.0312 20.1875C25.6998 20.1875 25.3343 20.0218 25.0006 19.5564C24.6713 19.0921 24.4375 18.3526 24.4375 17.5312C24.4375 16.7099 24.6713 15.9694 25.0006 15.5061C25.3343 15.0407 25.6998 14.875 26.0312 14.875ZM17 17C15.5837 17 14.5956 17.9191 14.11 18.7266C13.6276 19.5341 13.3301 20.2056 13.0475 20.4861C12.8849 20.6529 11.8596 21.0386 10.7908 21.5836C10.2563 21.8567 9.71762 22.2211 9.26394 22.7789C8.80706 23.3368 8.49894 24.1071 8.49894 24.9709C8.49894 27.0109 10.1777 28.6896 12.2177 28.6896C13.1378 28.6896 14.0983 28.3921 15.0386 28.1265C15.9832 27.8545 17 27.625 17 27.625C17 27.625 18.0168 27.8545 18.9592 28.1244C19.9006 28.39 20.8611 28.6875 21.7812 28.6875C23.8212 28.6875 25.5 27.0087 25.5 24.9688C25.5 24.1251 25.1887 23.3537 24.735 22.8119C24.2834 22.2668 23.7394 21.93 23.2092 21.6484C22.1467 21.0853 21.1023 20.6391 20.9514 20.4861C20.6964 20.2343 20.4096 19.5404 19.9208 18.7287C19.4331 17.9138 18.4237 17 17 17ZM17 19.125C17.7013 19.125 17.7788 19.295 18.0944 19.822C18.4131 20.3479 18.6511 21.2415 19.4225 22.0139C20.2991 22.8852 21.4062 23.0764 22.2126 23.5057C22.6164 23.7203 22.9245 23.9487 23.1094 24.1697C23.2932 24.3897 23.375 24.5905 23.375 24.9666C23.375 25.8591 22.6737 26.5604 21.7812 26.5604C21.4731 26.5604 20.4808 26.3266 19.5564 26.061C18.632 25.7986 17.867 25.4979 17 25.4979C16.133 25.4979 15.368 25.7986 14.4436 26.061C13.5192 26.3266 12.5269 26.5604 12.2188 26.5604C11.3263 26.5604 10.625 25.8591 10.625 24.9666C10.625 24.5384 10.7143 24.3185 10.8906 24.1017C11.067 23.8861 11.3921 23.6725 11.7874 23.4717C12.5779 23.0679 13.6786 22.9086 14.5764 22.0107C15.3552 21.2277 15.589 20.3054 15.9046 19.7848C16.2148 19.2642 16.2892 19.1208 16.9989 19.1208L17 19.125Z" fill="#F6B83D" />
</symbol>

<symbol id="icon-upload" width="16" height="16" viewBox="0 0 16 16" fill="none">
  <path d="M10.6673 10.6667L8.00065 8L5.33398 10.6667" stroke="#F6B83D" stroke-linecap="round" stroke-linejoin="round" />
  <path d="M8 8V14" stroke="#F6B83D" stroke-linecap="round" stroke-linejoin="round" />
  <path d="M13.5943 12.26C14.2445 11.9055 14.7582 11.3446 15.0542 10.6657C15.3502 9.9869 15.4118 9.22881 15.2291 8.51112C15.0464 7.79343 14.6299 7.157 14.0454 6.70229C13.4608 6.24758 12.7415 6.00048 12.0009 5.99999H11.1609C10.9592 5.21949 10.5831 4.49488 10.0609 3.88066C9.53877 3.26643 8.88418 2.77856 8.14635 2.45373C7.40852 2.1289 6.60665 1.97557 5.80103 2.00525C4.9954 2.03493 4.20699 2.24686 3.49507 2.6251C2.78314 3.00335 2.16622 3.53806 1.6907 4.18905C1.21517 4.84003 0.89341 5.59035 0.749603 6.38359C0.605797 7.17683 0.643687 7.99235 0.860425 8.76883C1.07716 9.54532 1.46711 10.2626 2.00095 10.8667" stroke="#F6B83D" stroke-linecap="round" stroke-linejoin="round" />
  <path d="M10.6673 10.6667L8.00065 8L5.33398 10.6667" stroke="#F6B83D" stroke-linecap="round" stroke-linejoin="round" />
</symbol>

  </defs>
</svg>
